<svg xmlns="http://www.w3.org/2000/svg" width="16" height="12.404" viewBox="0 0 16 12.404"><g transform="translate(-1963 -680.22)"><path d="M3032,303.35c-4.35,0-7.756-4.593-7.9-4.788a.526.526,0,0,1,0-.623,15.3,15.3,0,0,1,2.307-2.413l.863.664a15.039,15.039,0,0,0-2.072,2.061c.781.948,3.578,4.044,6.8,4.044a6.093,6.093,0,0,0,2.472-.565l.939.722A7.422,7.422,0,0,1,3032,303.35Zm0-2.237a2.864,2.864,0,0,1-2.8-3.441l4.081,3.139A2.825,2.825,0,0,1,3032,301.112Zm5.592-.138h0l-.863-.663a15.045,15.045,0,0,0,2.072-2.061c-.781-.948-3.579-4.044-6.8-4.044a6.1,6.1,0,0,0-2.473.565l-.939-.722a7.423,7.423,0,0,1,3.412-.9,8.75,8.75,0,0,1,5.527,2.321,15.217,15.217,0,0,1,2.372,2.467.529.529,0,0,1,0,.623,15.381,15.381,0,0,1-2.306,2.412Zm-2.789-2.145h0l-4.08-3.138a2.823,2.823,0,0,1,1.278-.3,2.862,2.862,0,0,1,2.8,3.439Z" transform="translate(-1061 388.172)" fill="#fff"/><line x2="14" y2="11" transform="translate(1964 680.922)" fill="none" stroke="#fff" stroke-linecap="round" stroke-width="1"/></g></svg>