<svg xmlns="http://www.w3.org/2000/svg" width="69.542" height="69.542" viewBox="0 0 69.542 69.542">
  <g id="Logo" transform="translate(0)">
    <g id="Grupo_25" data-name="Grupo 25" transform="translate(0 0)">
      <g id="Grupo_23" data-name="Grupo 23" transform="translate(0)">
        <path id="Caminho_22" data-name="Caminho 22" d="M-2580.5,2578.335a34.67,34.67,0,0,1-24.593-10.17,34.82,34.82,0,0,1,0-49.185,34.553,34.553,0,0,1,24.593-10.187,34.552,34.552,0,0,1,24.593,10.187,34.548,34.548,0,0,1,10.186,24.593,34.549,34.549,0,0,1-10.186,24.592A34.67,34.67,0,0,1-2580.5,2578.335Zm0-60.268a25.333,25.333,0,0,0-18.034,7.471,25.532,25.532,0,0,0,0,36.069,25.432,25.432,0,0,0,18.034,7.458,25.42,25.42,0,0,0,18.034-7.458,25.337,25.337,0,0,0,7.47-18.035,25.334,25.334,0,0,0-7.47-18.034A25.334,25.334,0,0,0-2580.5,2518.068Z" transform="translate(2615.261 -2508.793)" fill="#fff"/>
      </g>
      <g id="Grupo_24" data-name="Grupo 24" transform="translate(16.228 15.883)">
        <path id="Caminho_23" data-name="Caminho 23" d="M-2580.093,2558.5a18.76,18.76,0,0,0-3.416,10.853,18.918,18.918,0,0,0,18.894,18.877,18.811,18.811,0,0,0,10.856-3.447,35.584,35.584,0,0,0-9.478-16.83A35.59,35.59,0,0,0-2580.093,2558.5Z" transform="translate(2583.509 -2550.454)" fill="#fff"/>
        <path id="Caminho_24" data-name="Caminho 24" d="M-2534.524,2550.352a13.4,13.4,0,0,0,13.832,3.186,18.926,18.926,0,0,0-17.713-13.8A13.365,13.365,0,0,0-2534.524,2550.352Z" transform="translate(2557.78 -2539.742)" fill="#fff"/>
      </g>
    </g>
  </g>
</svg>
