<svg xmlns="http://www.w3.org/2000/svg" width="16" height="10.198" viewBox="0 0 16 10.198">
  <g id="view" transform="translate(0 -92.835)">
    <g id="Grupo_651" data-name="Grupo 651" transform="translate(0 92.835)">
      <g id="Grupo_650" data-name="Grupo 650" transform="translate(0 0)">
        <path id="Caminho_1467" data-name="Caminho 1467" d="M15.9,97.623c-.143-.2-3.549-4.788-7.9-4.788S.244,97.427.1,97.623a.528.528,0,0,0,0,.623c.143.2,3.549,4.788,7.9,4.788s7.755-4.592,7.9-4.788A.527.527,0,0,0,15.9,97.623ZM8,101.978c-3.2,0-5.979-3.048-6.8-4.044.82-1,3.59-4.044,6.8-4.044s5.979,3.047,6.8,4.044C13.98,98.932,11.211,101.978,8,101.978Z" transform="translate(0 -92.835)" fill="#fff"/>
      </g>
    </g>
    <g id="Grupo_653" data-name="Grupo 653" transform="translate(5.139 95.073)">
      <g id="Grupo_652" data-name="Grupo 652" transform="translate(0 0)">
        <path id="Caminho_1468" data-name="Caminho 1468" d="M157.583,154.725a2.861,2.861,0,1,0,2.861,2.861A2.865,2.865,0,0,0,157.583,154.725Zm-1.908,2.861Z" transform="translate(-154.722 -154.725)" fill="#fff"/>
      </g>
    </g>
  </g>
</svg>
